<?xml version="1.0" encoding="UTF-8"?>
<!DOCTYPE svg
PUBLIC "-//W3C//DTD SVG 1.1//EN"
       "http://www.w3.org/Graphics/SVG/1.1/DTD/svg11.dtd">
<svg viewBox="65 -1 1108 850" width="1043px" height="851px" xmlns="http://www.w3.org/2000/svg" version="1.1">
   <line x1="535" y1="623" x2="525" y2="623" style="stroke:#b0b;stroke-width:1;"/>
   <line x1="427" y1="85" x2="417" y2="85" style="stroke:#b0b;stroke-width:1;"/>
   <line x1="525" y1="623" x2="427" y2="85" style="stroke:#b0b;stroke-width:1;"/>
   <line x1="527.5" y1="623" x2="531.03553390593" y2="626.53553390593" style="stroke:#b0b;stroke-width:2;"/>
   <line x1="527.5" y1="623" x2="531.03553390593" y2="619.46446609407" style="stroke:#b0b;stroke-width:2;"/>
   <line x1="422" y1="85" x2="425.53553390593" y2="88.535533905933" style="stroke:#b0b;stroke-width:2;"/>
   <line x1="422" y1="85" x2="425.53553390593" y2="81.464466094067" style="stroke:#b0b;stroke-width:2;"/>
   <line x1="535" y1="603" x2="525" y2="603" style="stroke:#c00;stroke-width:1;"/>
   <line x1="520" y1="155" x2="530" y2="155" style="stroke:#c00;stroke-width:1;"/>
   <line x1="525" y1="603" x2="520" y2="155" style="stroke:#c00;stroke-width:1;"/>
   <line x1="527.5" y1="603" x2="531.03553390593" y2="606.53553390593" style="stroke:#c00;stroke-width:2;"/>
   <line x1="527.5" y1="603" x2="531.03553390593" y2="599.46446609407" style="stroke:#c00;stroke-width:2;"/>
   <line x1="525" y1="155" x2="521.46446609407" y2="158.53553390593" style="stroke:#c00;stroke-width:2;"/>
   <line x1="525" y1="155" x2="521.46446609407" y2="151.46446609407" style="stroke:#c00;stroke-width:2;"/>
   <line x1="530" y1="175" x2="520" y2="175" style="stroke:#333;stroke-width:1;"/>
   <line x1="530" y1="463" x2="540" y2="463" style="stroke:#333;stroke-width:1;"/>
   <line x1="520" y1="175" x2="530" y2="463" style="stroke:#333;stroke-width:1;"/>
   <line x1="522.5" y1="175" x2="526.03553390593" y2="178.53553390593" style="stroke:#333;stroke-width:2;"/>
   <line x1="522.5" y1="175" x2="526.03553390593" y2="171.46446609407" style="stroke:#333;stroke-width:2;"/>
   <line x1="535" y1="463" x2="531.46446609407" y2="466.53553390593" style="stroke:#333;stroke-width:2;"/>
   <line x1="535" y1="463" x2="531.46446609407" y2="459.46446609407" style="stroke:#333;stroke-width:2;"/>
   <line x1="846" y1="436" x2="856" y2="436" style="stroke:#b0b;stroke-width:1;"/>
   <line x1="853" y1="497" x2="863" y2="497" style="stroke:#b0b;stroke-width:1;"/>
   <line x1="856" y1="436" x2="853" y2="497" style="stroke:#b0b;stroke-width:1;"/>
   <line x1="853.5" y1="436" x2="849.96446609407" y2="439.53553390593" style="stroke:#b0b;stroke-width:2;"/>
   <line x1="853.5" y1="436" x2="849.96446609407" y2="432.46446609407" style="stroke:#b0b;stroke-width:2;"/>
   <line x1="858" y1="497" x2="854.46446609407" y2="500.53553390593" style="stroke:#b0b;stroke-width:2;"/>
   <line x1="858" y1="497" x2="854.46446609407" y2="493.46446609407" style="stroke:#b0b;stroke-width:2;"/>
   <line x1="774" y1="69" x2="764" y2="69" style="stroke:#0bf;stroke-width:1;"/>
   <line x1="427" y1="85" x2="417" y2="85" style="stroke:#0bf;stroke-width:1;"/>
   <line x1="764" y1="69" x2="427" y2="85" style="stroke:#0bf;stroke-width:1;"/>
   <line x1="766.5" y1="69" x2="770.03553390593" y2="72.535533905933" style="stroke:#0bf;stroke-width:2;"/>
   <line x1="766.5" y1="69" x2="770.03553390593" y2="65.464466094067" style="stroke:#0bf;stroke-width:2;"/>
   <line x1="422" y1="85" x2="425.53553390593" y2="88.535533905933" style="stroke:#0bf;stroke-width:2;"/>
   <line x1="422" y1="85" x2="425.53553390593" y2="81.464466094067" style="stroke:#0bf;stroke-width:2;"/>
   <line x1="774" y1="89" x2="764" y2="89" style="stroke:#333;stroke-width:1;"/>
   <line x1="653" y1="155" x2="643" y2="155" style="stroke:#333;stroke-width:1;"/>
   <line x1="764" y1="89" x2="653" y2="155" style="stroke:#333;stroke-width:1;"/>
   <line x1="766.5" y1="89" x2="770.03553390593" y2="92.535533905933" style="stroke:#333;stroke-width:2;"/>
   <line x1="766.5" y1="89" x2="770.03553390593" y2="85.464466094067" style="stroke:#333;stroke-width:2;"/>
   <line x1="648" y1="155" x2="651.53553390593" y2="158.53553390593" style="stroke:#333;stroke-width:2;"/>
   <line x1="648" y1="155" x2="651.53553390593" y2="151.46446609407" style="stroke:#333;stroke-width:2;"/>
   <line x1="176" y1="65" x2="186" y2="65" style="stroke:#0b0;stroke-width:1;"/>
   <line x1="286" y1="85" x2="296" y2="85" style="stroke:#0b0;stroke-width:1;"/>
   <line x1="186" y1="65" x2="286" y2="85" style="stroke:#0b0;stroke-width:1;"/>
   <line x1="183.5" y1="65" x2="179.96446609407" y2="68.535533905933" style="stroke:#0b0;stroke-width:2;"/>
   <line x1="183.5" y1="65" x2="179.96446609407" y2="61.464466094067" style="stroke:#0b0;stroke-width:2;"/>
   <line x1="291" y1="85" x2="287.46446609407" y2="88.535533905933" style="stroke:#0b0;stroke-width:2;"/>
   <line x1="291" y1="85" x2="287.46446609407" y2="81.464466094067" style="stroke:#0b0;stroke-width:2;"/>
   <line x1="757" y1="283" x2="747" y2="283" style="stroke:#bbb;stroke-width:1;"/>
   <line x1="427" y1="85" x2="417" y2="85" style="stroke:#bbb;stroke-width:1;"/>
   <line x1="747" y1="283" x2="427" y2="85" style="stroke:#bbb;stroke-width:1;"/>
   <line x1="749.5" y1="283" x2="753.03553390593" y2="286.53553390593" style="stroke:#bbb;stroke-width:2;"/>
   <line x1="749.5" y1="283" x2="753.03553390593" y2="279.46446609407" style="stroke:#bbb;stroke-width:2;"/>
   <line x1="422" y1="85" x2="425.53553390593" y2="88.535533905933" style="stroke:#bbb;stroke-width:2;"/>
   <line x1="422" y1="85" x2="425.53553390593" y2="81.464466094067" style="stroke:#bbb;stroke-width:2;"/>
   <line x1="580" y1="44" x2="570" y2="44" style="stroke:#cb0;stroke-width:1;"/>
   <line x1="427" y1="85" x2="417" y2="85" style="stroke:#cb0;stroke-width:1;"/>
   <line x1="570" y1="44" x2="427" y2="85" style="stroke:#cb0;stroke-width:1;"/>
   <line x1="572.5" y1="44" x2="576.03553390593" y2="47.535533905933" style="stroke:#cb0;stroke-width:2;"/>
   <line x1="572.5" y1="44" x2="576.03553390593" y2="40.464466094067" style="stroke:#cb0;stroke-width:2;"/>
   <line x1="422" y1="85" x2="425.53553390593" y2="88.535533905933" style="stroke:#cb0;stroke-width:2;"/>
   <line x1="422" y1="85" x2="425.53553390593" y2="81.464466094067" style="stroke:#cb0;stroke-width:2;"/>
   <line x1="740" y1="179" x2="730" y2="179" style="stroke:#cb0;stroke-width:1;"/>
   <line x1="427" y1="85" x2="417" y2="85" style="stroke:#cb0;stroke-width:1;"/>
   <line x1="730" y1="179" x2="427" y2="85" style="stroke:#cb0;stroke-width:1;"/>
   <line x1="732.5" y1="179" x2="736.03553390593" y2="182.53553390593" style="stroke:#cb0;stroke-width:2;"/>
   <line x1="732.5" y1="179" x2="736.03553390593" y2="175.46446609407" style="stroke:#cb0;stroke-width:2;"/>
   <line x1="422" y1="85" x2="425.53553390593" y2="88.535533905933" style="stroke:#cb0;stroke-width:2;"/>
   <line x1="422" y1="85" x2="425.53553390593" y2="81.464466094067" style="stroke:#cb0;stroke-width:2;"/>
   <line x1="944" y1="183" x2="934" y2="183" style="stroke:#c00;stroke-width:1;"/>
   <line x1="427" y1="85" x2="417" y2="85" style="stroke:#c00;stroke-width:1;"/>
   <line x1="934" y1="183" x2="427" y2="85" style="stroke:#c00;stroke-width:1;"/>
   <line x1="936.5" y1="183" x2="940.03553390593" y2="186.53553390593" style="stroke:#c00;stroke-width:2;"/>
   <line x1="936.5" y1="183" x2="940.03553390593" y2="179.46446609407" style="stroke:#c00;stroke-width:2;"/>
   <line x1="422" y1="85" x2="425.53553390593" y2="88.535533905933" style="stroke:#c00;stroke-width:2;"/>
   <line x1="422" y1="85" x2="425.53553390593" y2="81.464466094067" style="stroke:#c00;stroke-width:2;"/>
   <line x1="863" y1="537" x2="853" y2="537" style="stroke:#cb0;stroke-width:1;"/>
   <line x1="201" y1="224" x2="191" y2="224" style="stroke:#cb0;stroke-width:1;"/>
   <line x1="853" y1="537" x2="201" y2="224" style="stroke:#cb0;stroke-width:1;"/>
   <line x1="855.5" y1="537" x2="859.03553390593" y2="540.53553390593" style="stroke:#cb0;stroke-width:2;"/>
   <line x1="855.5" y1="537" x2="859.03553390593" y2="533.46446609407" style="stroke:#cb0;stroke-width:2;"/>
   <line x1="196" y1="224" x2="199.53553390593" y2="227.53553390593" style="stroke:#cb0;stroke-width:2;"/>
   <line x1="196" y1="224" x2="199.53553390593" y2="220.46446609407" style="stroke:#cb0;stroke-width:2;"/>
   <line x1="984" y1="113" x2="974" y2="113" style="stroke:#c00;stroke-width:1;"/>
   <line x1="958" y1="497" x2="948" y2="497" style="stroke:#c00;stroke-width:1;"/>
   <line x1="974" y1="113" x2="958" y2="497" style="stroke:#c00;stroke-width:1;"/>
   <line x1="976.5" y1="113" x2="980.03553390593" y2="116.53553390593" style="stroke:#c00;stroke-width:2;"/>
   <line x1="976.5" y1="113" x2="980.03553390593" y2="109.46446609407" style="stroke:#c00;stroke-width:2;"/>
   <line x1="953" y1="497" x2="956.53553390593" y2="500.53553390593" style="stroke:#c00;stroke-width:2;"/>
   <line x1="953" y1="497" x2="956.53553390593" y2="493.46446609407" style="stroke:#c00;stroke-width:2;"/>
   <line x1="188" y1="428" x2="198" y2="428" style="stroke:#333;stroke-width:1;"/>
   <line x1="286" y1="85" x2="296" y2="85" style="stroke:#333;stroke-width:1;"/>
   <line x1="198" y1="428" x2="286" y2="85" style="stroke:#333;stroke-width:1;"/>
   <line x1="195.5" y1="428" x2="191.96446609407" y2="431.53553390593" style="stroke:#333;stroke-width:2;"/>
   <line x1="195.5" y1="428" x2="191.96446609407" y2="424.46446609407" style="stroke:#333;stroke-width:2;"/>
   <line x1="291" y1="85" x2="287.46446609407" y2="88.535533905933" style="stroke:#333;stroke-width:2;"/>
   <line x1="291" y1="85" x2="287.46446609407" y2="81.464466094067" style="stroke:#333;stroke-width:2;"/>
   <rect width="80" height="20" x="535" y="553" style="fill:#007;stroke:black;"/>
   <text width="80" height="20" x="540" y="567" style="fill:#fff;" font-family="Arial" font-size="16px"> cart</text>
   <rect width="80" height="20" x="535" y="573" style="fill:#aea;stroke:black;"/>
   <text width="80" height="20" x="540" y="587" style="fill:black;" font-family="Arial" font-size="16px">id</text>
   <rect width="80" height="20" x="535" y="593" style="fill:none;stroke:black;"/>
   <text width="80" height="20" x="540" y="607" style="fill:black;" font-family="Arial" font-size="16px">course_id</text>
   <rect width="80" height="20" x="535" y="613" style="fill:none;stroke:black;"/>
   <text width="80" height="20" x="540" y="627" style="fill:black;" font-family="Arial" font-size="16px">student_id</text>
   <rect width="76" height="20" x="540" y="433" style="fill:#007;stroke:black;"/>
   <text width="76" height="20" x="545" y="447" style="fill:#fff;" font-family="Arial" font-size="16px"> category</text>
   <rect width="76" height="20" x="540" y="453" style="fill:#aea;stroke:black;"/>
   <text width="76" height="20" x="545" y="467" style="fill:black;" font-family="Arial" font-size="16px">cid</text>
   <rect width="76" height="20" x="540" y="473" style="fill:none;stroke:black;"/>
   <text width="76" height="20" x="545" y="487" style="fill:black;" font-family="Arial" font-size="16px">cat_name</text>
   <rect width="76" height="20" x="540" y="493" style="fill:none;stroke:black;"/>
   <text width="76" height="20" x="545" y="507" style="fill:black;" font-family="Arial" font-size="16px">cat_img</text>
   <rect width="113" height="20" x="530" y="125" style="fill:#007;stroke:black;"/>
   <text width="113" height="20" x="535" y="139" style="fill:#fff;" font-family="Arial" font-size="16px"> courses</text>
   <rect width="113" height="20" x="530" y="145" style="fill:#aea;stroke:black;"/>
   <text width="113" height="20" x="535" y="159" style="fill:black;" font-family="Arial" font-size="16px">course_id</text>
   <rect width="113" height="20" x="530" y="165" style="fill:none;stroke:black;"/>
   <text width="113" height="20" x="535" y="179" style="fill:black;" font-family="Arial" font-size="16px">cid</text>
   <rect width="113" height="20" x="530" y="185" style="fill:none;stroke:black;"/>
   <text width="113" height="20" x="535" y="199" style="fill:black;" font-family="Arial" font-size="16px">cname</text>
   <rect width="113" height="20" x="530" y="205" style="fill:none;stroke:black;"/>
   <text width="113" height="20" x="535" y="219" style="fill:black;" font-family="Arial" font-size="16px">cdesc</text>
   <rect width="113" height="20" x="530" y="225" style="fill:none;stroke:black;"/>
   <text width="113" height="20" x="535" y="239" style="fill:black;" font-family="Arial" font-size="16px">duration</text>
   <rect width="113" height="20" x="530" y="245" style="fill:none;stroke:black;"/>
   <text width="113" height="20" x="535" y="259" style="fill:black;" font-family="Arial" font-size="16px">image</text>
   <rect width="113" height="20" x="530" y="265" style="fill:none;stroke:black;"/>
   <text width="113" height="20" x="535" y="279" style="fill:black;" font-family="Arial" font-size="16px">course_access</text>
   <rect width="113" height="20" x="530" y="285" style="fill:none;stroke:black;"/>
   <text width="113" height="20" x="535" y="299" style="fill:black;" font-family="Arial" font-size="16px">prerequisites</text>
   <rect width="113" height="20" x="530" y="305" style="fill:none;stroke:black;"/>
   <text width="113" height="20" x="535" y="319" style="fill:black;" font-family="Arial" font-size="16px">fees</text>
   <rect width="113" height="20" x="530" y="325" style="fill:none;stroke:black;"/>
   <text width="113" height="20" x="535" y="339" style="fill:black;" font-family="Arial" font-size="16px">start_date</text>
   <rect width="113" height="20" x="530" y="345" style="fill:none;stroke:black;"/>
   <text width="113" height="20" x="535" y="359" style="fill:black;" font-family="Arial" font-size="16px">end_date</text>
   <rect width="113" height="20" x="530" y="365" style="fill:none;stroke:black;"/>
   <text width="113" height="20" x="535" y="379" style="fill:black;" font-family="Arial" font-size="16px">instructor</text>
   <rect width="109" height="20" x="737" y="366" style="fill:#007;stroke:black;"/>
   <text width="109" height="20" x="742" y="380" style="fill:#fff;" font-family="Arial" font-size="16px"> elective</text>
   <rect width="109" height="20" x="737" y="386" style="fill:#aea;stroke:black;"/>
   <text width="109" height="20" x="742" y="400" style="fill:black;" font-family="Arial" font-size="16px">eid</text>
   <rect width="109" height="20" x="737" y="406" style="fill:none;stroke:black;"/>
   <text width="109" height="20" x="742" y="420" style="fill:black;" font-family="Arial" font-size="16px">elective_name</text>
   <rect width="109" height="20" x="737" y="426" style="fill:none;stroke:black;"/>
   <text width="109" height="20" x="742" y="440" style="fill:black;" font-family="Arial" font-size="16px">sem_id</text>
   <rect width="87" height="20" x="774" y="19" style="fill:#007;stroke:black;"/>
   <text width="87" height="20" x="779" y="33" style="fill:#fff;" font-family="Arial" font-size="16px"> enrollment</text>
   <rect width="87" height="20" x="774" y="39" style="fill:#aea;stroke:black;"/>
   <text width="87" height="20" x="779" y="53" style="fill:black;" font-family="Arial" font-size="16px">enroll_id</text>
   <rect width="87" height="20" x="774" y="59" style="fill:none;stroke:black;"/>
   <text width="87" height="20" x="779" y="73" style="fill:black;" font-family="Arial" font-size="16px">student_id</text>
   <rect width="87" height="20" x="774" y="79" style="fill:none;stroke:black;"/>
   <text width="87" height="20" x="779" y="93" style="fill:black;" font-family="Arial" font-size="16px">course_id</text>
   <rect width="87" height="20" x="774" y="99" style="fill:none;stroke:black;"/>
   <text width="87" height="20" x="779" y="113" style="fill:black;" font-family="Arial" font-size="16px">order_id</text>
   <rect width="96" height="20" x="80" y="35" style="fill:#007;stroke:black;"/>
   <text width="96" height="20" x="85" y="49" style="fill:#fff;" font-family="Arial" font-size="16px"> exam</text>
   <rect width="96" height="20" x="80" y="55" style="fill:none;stroke:black;"/>
   <text width="96" height="20" x="85" y="69" style="fill:black;" font-family="Arial" font-size="16px">student_id</text>
   <rect width="96" height="20" x="80" y="75" style="fill:none;stroke:black;"/>
   <text width="96" height="20" x="85" y="89" style="fill:black;" font-family="Arial" font-size="16px">semesters</text>
   <rect width="96" height="20" x="80" y="95" style="fill:none;stroke:black;"/>
   <text width="96" height="20" x="85" y="109" style="fill:black;" font-family="Arial" font-size="16px">sgpa</text>
   <rect width="96" height="20" x="80" y="115" style="fill:none;stroke:black;"/>
   <text width="96" height="20" x="85" y="129" style="fill:black;" font-family="Arial" font-size="16px">result</text>
   <rect width="96" height="20" x="80" y="135" style="fill:none;stroke:black;"/>
   <text width="96" height="20" x="85" y="149" style="fill:black;" font-family="Arial" font-size="16px">rmonth_year</text>
   <rect width="86" height="20" x="757" y="253" style="fill:#007;stroke:black;"/>
   <text width="86" height="20" x="762" y="267" style="fill:#fff;" font-family="Arial" font-size="16px"> fees</text>
   <rect width="86" height="20" x="757" y="273" style="fill:none;stroke:black;"/>
   <text width="86" height="20" x="762" y="287" style="fill:black;" font-family="Arial" font-size="16px">student_id</text>
   <rect width="86" height="20" x="757" y="293" style="fill:none;stroke:black;"/>
   <text width="86" height="20" x="762" y="307" style="fill:black;" font-family="Arial" font-size="16px">tot_fees</text>
   <rect width="86" height="20" x="757" y="313" style="fill:none;stroke:black;"/>
   <text width="86" height="20" x="762" y="327" style="fill:black;" font-family="Arial" font-size="16px">current_bal</text>
   <rect width="80" height="20" x="580" y="14" style="fill:#007;stroke:black;"/>
   <text width="80" height="20" x="585" y="28" style="fill:#fff;" font-family="Arial" font-size="16px"> messages</text>
   <rect width="80" height="20" x="580" y="34" style="fill:none;stroke:black;"/>
   <text width="80" height="20" x="585" y="48" style="fill:black;" font-family="Arial" font-size="16px">student_id</text>
   <rect width="80" height="20" x="580" y="54" style="fill:none;stroke:black;"/>
   <text width="80" height="20" x="585" y="68" style="fill:black;" font-family="Arial" font-size="16px">email</text>
   <rect width="80" height="20" x="580" y="74" style="fill:none;stroke:black;"/>
   <text width="80" height="20" x="585" y="88" style="fill:black;" font-family="Arial" font-size="16px">message</text>
   <rect width="115" height="20" x="740" y="149" style="fill:#007;stroke:black;"/>
   <text width="115" height="20" x="745" y="163" style="fill:#fff;" font-family="Arial" font-size="16px"> messagessent</text>
   <rect width="115" height="20" x="740" y="169" style="fill:none;stroke:black;"/>
   <text width="115" height="20" x="745" y="183" style="fill:black;" font-family="Arial" font-size="16px">student_id</text>
   <rect width="115" height="20" x="740" y="189" style="fill:none;stroke:black;"/>
   <text width="115" height="20" x="745" y="203" style="fill:black;" font-family="Arial" font-size="16px">email</text>
   <rect width="115" height="20" x="740" y="209" style="fill:none;stroke:black;"/>
   <text width="115" height="20" x="745" y="223" style="fill:black;" font-family="Arial" font-size="16px">message</text>
   <rect width="149" height="20" x="944" y="153" style="fill:#007;stroke:black;"/>
   <text width="149" height="20" x="949" y="167" style="fill:#fff;" font-family="Arial" font-size="16px"> onlinepayment</text>
   <rect width="149" height="20" x="944" y="173" style="fill:none;stroke:black;"/>
   <text width="149" height="20" x="949" y="187" style="fill:black;" font-family="Arial" font-size="16px">student_id</text>
   <rect width="149" height="20" x="944" y="193" style="fill:#aea;stroke:black;"/>
   <text width="149" height="20" x="949" y="207" style="fill:black;" font-family="Arial" font-size="16px">pID</text>
   <rect width="149" height="20" x="944" y="213" style="fill:none;stroke:black;"/>
   <text width="149" height="20" x="949" y="227" style="fill:black;" font-family="Arial" font-size="16px">email</text>
   <rect width="149" height="20" x="944" y="233" style="fill:none;stroke:black;"/>
   <text width="149" height="20" x="949" y="247" style="fill:black;" font-family="Arial" font-size="16px">phone</text>
   <rect width="149" height="20" x="944" y="253" style="fill:none;stroke:black;"/>
   <text width="149" height="20" x="949" y="267" style="fill:black;" font-family="Arial" font-size="16px">toValue</text>
   <rect width="149" height="20" x="944" y="273" style="fill:none;stroke:black;"/>
   <text width="149" height="20" x="949" y="287" style="fill:black;" font-family="Arial" font-size="16px">message</text>
   <rect width="149" height="20" x="944" y="293" style="fill:none;stroke:black;"/>
   <text width="149" height="20" x="949" y="307" style="fill:black;" font-family="Arial" font-size="16px">razorpayOrderId</text>
   <rect width="149" height="20" x="944" y="313" style="fill:none;stroke:black;"/>
   <text width="149" height="20" x="949" y="327" style="fill:black;" font-family="Arial" font-size="16px">razorpayPaymentId</text>
   <rect width="149" height="20" x="944" y="333" style="fill:none;stroke:black;"/>
   <text width="149" height="20" x="949" y="347" style="fill:black;" font-family="Arial" font-size="16px">paymentStatus</text>
   <rect width="149" height="20" x="944" y="353" style="fill:none;stroke:black;"/>
   <text width="149" height="20" x="949" y="367" style="fill:black;" font-family="Arial" font-size="16px">makerstamp</text>
   <rect width="149" height="20" x="944" y="373" style="fill:none;stroke:black;"/>
   <text width="149" height="20" x="949" y="387" style="fill:black;" font-family="Arial" font-size="16px">updatestamp</text>
   <rect width="149" height="20" x="944" y="393" style="fill:none;stroke:black;"/>
   <text width="149" height="20" x="949" y="407" style="fill:black;" font-family="Arial" font-size="16px">type</text>
   <rect width="85" height="20" x="863" y="467" style="fill:#007;stroke:black;"/>
   <text width="85" height="20" x="868" y="481" style="fill:#fff;" font-family="Arial" font-size="16px"> semester</text>
   <rect width="85" height="20" x="863" y="487" style="fill:#aea;stroke:black;"/>
   <text width="85" height="20" x="868" y="501" style="fill:black;" font-family="Arial" font-size="16px">sem_id</text>
   <rect width="85" height="20" x="863" y="507" style="fill:none;stroke:black;"/>
   <text width="85" height="20" x="868" y="521" style="fill:black;" font-family="Arial" font-size="16px">sem_name</text>
   <rect width="85" height="20" x="863" y="527" style="fill:none;stroke:black;"/>
   <text width="85" height="20" x="868" y="541" style="fill:black;" font-family="Arial" font-size="16px">ugid</text>
   <rect width="121" height="20" x="296" y="35" style="fill:#007;stroke:black;"/>
   <text width="121" height="20" x="301" y="49" style="fill:#fff;" font-family="Arial" font-size="16px"> student</text>
   <rect width="121" height="20" x="296" y="55" style="fill:none;stroke:black;"/>
   <text width="121" height="20" x="301" y="69" style="fill:black;" font-family="Arial" font-size="16px">sid</text>
   <rect width="121" height="20" x="296" y="75" style="fill:none;stroke:black;"/>
   <text width="121" height="20" x="301" y="89" style="fill:black;" font-family="Arial" font-size="16px">student_id</text>
   <rect width="121" height="20" x="296" y="95" style="fill:none;stroke:black;"/>
   <text width="121" height="20" x="301" y="109" style="fill:black;" font-family="Arial" font-size="16px">full_name</text>
   <rect width="121" height="20" x="296" y="115" style="fill:none;stroke:black;"/>
   <text width="121" height="20" x="301" y="129" style="fill:black;" font-family="Arial" font-size="16px">email</text>
   <rect width="121" height="20" x="296" y="135" style="fill:none;stroke:black;"/>
   <text width="121" height="20" x="301" y="149" style="fill:black;" font-family="Arial" font-size="16px">password</text>
   <rect width="121" height="20" x="296" y="155" style="fill:none;stroke:black;"/>
   <text width="121" height="20" x="301" y="169" style="fill:black;" font-family="Arial" font-size="16px">create_datetime</text>
   <rect width="121" height="20" x="296" y="175" style="fill:none;stroke:black;"/>
   <text width="121" height="20" x="301" y="189" style="fill:black;" font-family="Arial" font-size="16px">dob</text>
   <rect width="121" height="20" x="296" y="195" style="fill:none;stroke:black;"/>
   <text width="121" height="20" x="301" y="209" style="fill:black;" font-family="Arial" font-size="16px">phone</text>
   <rect width="121" height="20" x="296" y="215" style="fill:none;stroke:black;"/>
   <text width="121" height="20" x="301" y="229" style="fill:black;" font-family="Arial" font-size="16px">code</text>
   <rect width="121" height="20" x="296" y="235" style="fill:none;stroke:black;"/>
   <text width="121" height="20" x="301" y="249" style="fill:black;" font-family="Arial" font-size="16px">is_verified</text>
   <rect width="121" height="20" x="296" y="255" style="fill:none;stroke:black;"/>
   <text width="121" height="20" x="301" y="269" style="fill:black;" font-family="Arial" font-size="16px">course</text>
   <rect width="121" height="20" x="296" y="275" style="fill:none;stroke:black;"/>
   <text width="121" height="20" x="301" y="289" style="fill:black;" font-family="Arial" font-size="16px">specialisation</text>
   <rect width="121" height="20" x="296" y="295" style="fill:none;stroke:black;"/>
   <text width="121" height="20" x="301" y="309" style="fill:black;" font-family="Arial" font-size="16px">aadhar</text>
   <rect width="121" height="20" x="296" y="315" style="fill:none;stroke:black;"/>
   <text width="121" height="20" x="301" y="329" style="fill:black;" font-family="Arial" font-size="16px">pan</text>
   <rect width="121" height="20" x="296" y="335" style="fill:none;stroke:black;"/>
   <text width="121" height="20" x="301" y="349" style="fill:black;" font-family="Arial" font-size="16px">blood_group</text>
   <rect width="121" height="20" x="296" y="355" style="fill:none;stroke:black;"/>
   <text width="121" height="20" x="301" y="369" style="fill:black;" font-family="Arial" font-size="16px">nationality</text>
   <rect width="121" height="20" x="296" y="375" style="fill:none;stroke:black;"/>
   <text width="121" height="20" x="301" y="389" style="fill:black;" font-family="Arial" font-size="16px">community</text>
   <rect width="121" height="20" x="296" y="395" style="fill:none;stroke:black;"/>
   <text width="121" height="20" x="301" y="409" style="fill:black;" font-family="Arial" font-size="16px">caste</text>
   <rect width="121" height="20" x="296" y="415" style="fill:none;stroke:black;"/>
   <text width="121" height="20" x="301" y="429" style="fill:black;" font-family="Arial" font-size="16px">category</text>
   <rect width="121" height="20" x="296" y="435" style="fill:none;stroke:black;"/>
   <text width="121" height="20" x="301" y="449" style="fill:black;" font-family="Arial" font-size="16px">address</text>
   <rect width="121" height="20" x="296" y="455" style="fill:none;stroke:black;"/>
   <text width="121" height="20" x="301" y="469" style="fill:black;" font-family="Arial" font-size="16px">country</text>
   <rect width="121" height="20" x="296" y="475" style="fill:none;stroke:black;"/>
   <text width="121" height="20" x="301" y="489" style="fill:black;" font-family="Arial" font-size="16px">state</text>
   <rect width="121" height="20" x="296" y="495" style="fill:none;stroke:black;"/>
   <text width="121" height="20" x="301" y="509" style="fill:black;" font-family="Arial" font-size="16px">city</text>
   <rect width="121" height="20" x="296" y="515" style="fill:none;stroke:black;"/>
   <text width="121" height="20" x="301" y="529" style="fill:black;" font-family="Arial" font-size="16px">pincode</text>
   <rect width="121" height="20" x="296" y="535" style="fill:none;stroke:black;"/>
   <text width="121" height="20" x="301" y="549" style="fill:black;" font-family="Arial" font-size="16px">fname</text>
   <rect width="121" height="20" x="296" y="555" style="fill:none;stroke:black;"/>
   <text width="121" height="20" x="301" y="569" style="fill:black;" font-family="Arial" font-size="16px">foccupation</text>
   <rect width="121" height="20" x="296" y="575" style="fill:none;stroke:black;"/>
   <text width="121" height="20" x="301" y="589" style="fill:black;" font-family="Arial" font-size="16px">fmobile</text>
   <rect width="121" height="20" x="296" y="595" style="fill:none;stroke:black;"/>
   <text width="121" height="20" x="301" y="609" style="fill:black;" font-family="Arial" font-size="16px">femail</text>
   <rect width="121" height="20" x="296" y="615" style="fill:none;stroke:black;"/>
   <text width="121" height="20" x="301" y="629" style="fill:black;" font-family="Arial" font-size="16px">fincome</text>
   <rect width="121" height="20" x="296" y="635" style="fill:none;stroke:black;"/>
   <text width="121" height="20" x="301" y="649" style="fill:black;" font-family="Arial" font-size="16px">mname</text>
   <rect width="121" height="20" x="296" y="655" style="fill:none;stroke:black;"/>
   <text width="121" height="20" x="301" y="669" style="fill:black;" font-family="Arial" font-size="16px">moccupation</text>
   <rect width="121" height="20" x="296" y="675" style="fill:none;stroke:black;"/>
   <text width="121" height="20" x="301" y="689" style="fill:black;" font-family="Arial" font-size="16px">mmobile</text>
   <rect width="121" height="20" x="296" y="695" style="fill:none;stroke:black;"/>
   <text width="121" height="20" x="301" y="709" style="fill:black;" font-family="Arial" font-size="16px">memail</text>
   <rect width="121" height="20" x="296" y="715" style="fill:none;stroke:black;"/>
   <text width="121" height="20" x="301" y="729" style="fill:black;" font-family="Arial" font-size="16px">mincome</text>
   <rect width="121" height="20" x="296" y="735" style="fill:none;stroke:black;"/>
   <text width="121" height="20" x="301" y="749" style="fill:black;" font-family="Arial" font-size="16px">gname</text>
   <rect width="121" height="20" x="296" y="755" style="fill:none;stroke:black;"/>
   <text width="121" height="20" x="301" y="769" style="fill:black;" font-family="Arial" font-size="16px">goccupation</text>
   <rect width="121" height="20" x="296" y="775" style="fill:none;stroke:black;"/>
   <text width="121" height="20" x="301" y="789" style="fill:black;" font-family="Arial" font-size="16px">gmobile</text>
   <rect width="121" height="20" x="296" y="795" style="fill:none;stroke:black;"/>
   <text width="121" height="20" x="301" y="809" style="fill:black;" font-family="Arial" font-size="16px">gemail</text>
   <rect width="121" height="20" x="296" y="815" style="fill:none;stroke:black;"/>
   <text width="121" height="20" x="301" y="829" style="fill:black;" font-family="Arial" font-size="16px">gincome</text>
   <rect width="81" height="20" x="984" y="43" style="fill:#007;stroke:black;"/>
   <text width="81" height="20" x="989" y="57" style="fill:#fff;" font-family="Arial" font-size="16px"> subject</text>
   <rect width="81" height="20" x="984" y="63" style="fill:#aea;stroke:black;"/>
   <text width="81" height="20" x="989" y="77" style="fill:black;" font-family="Arial" font-size="16px">sub_id</text>
   <rect width="81" height="20" x="984" y="83" style="fill:none;stroke:black;"/>
   <text width="81" height="20" x="989" y="97" style="fill:black;" font-family="Arial" font-size="16px">sub_name</text>
   <rect width="81" height="20" x="984" y="103" style="fill:none;stroke:black;"/>
   <text width="81" height="20" x="989" y="117" style="fill:black;" font-family="Arial" font-size="16px">sem_id</text>
   <rect width="102" height="20" x="89" y="194" style="fill:#007;stroke:black;"/>
   <text width="102" height="20" x="94" y="208" style="fill:#fff;" font-family="Arial" font-size="16px"> ugc</text>
   <rect width="102" height="20" x="89" y="214" style="fill:#aea;stroke:black;"/>
   <text width="102" height="20" x="94" y="228" style="fill:black;" font-family="Arial" font-size="16px">ugid</text>
   <rect width="102" height="20" x="89" y="234" style="fill:none;stroke:black;"/>
   <text width="102" height="20" x="94" y="248" style="fill:black;" font-family="Arial" font-size="16px">ugname</text>
   <rect width="102" height="20" x="89" y="254" style="fill:none;stroke:black;"/>
   <text width="102" height="20" x="94" y="268" style="fill:black;" font-family="Arial" font-size="16px">image</text>
   <rect width="102" height="20" x="89" y="274" style="fill:none;stroke:black;"/>
   <text width="102" height="20" x="94" y="288" style="fill:black;" font-family="Arial" font-size="16px">short_desc</text>
   <rect width="102" height="20" x="89" y="294" style="fill:none;stroke:black;"/>
   <text width="102" height="20" x="94" y="308" style="fill:black;" font-family="Arial" font-size="16px">desc</text>
   <rect width="102" height="20" x="89" y="314" style="fill:none;stroke:black;"/>
   <text width="102" height="20" x="94" y="328" style="fill:black;" font-family="Arial" font-size="16px">prerequisites</text>
   <rect width="102" height="20" x="89" y="334" style="fill:none;stroke:black;"/>
   <text width="102" height="20" x="94" y="348" style="fill:black;" font-family="Arial" font-size="16px">fees</text>
   <rect width="80" height="20" x="108" y="398" style="fill:#007;stroke:black;"/>
   <text width="80" height="20" x="113" y="412" style="fill:#fff;" font-family="Arial" font-size="16px"> upload</text>
   <rect width="80" height="20" x="108" y="418" style="fill:none;stroke:black;"/>
   <text width="80" height="20" x="113" y="432" style="fill:black;" font-family="Arial" font-size="16px">student_id</text>
   <rect width="80" height="20" x="108" y="438" style="fill:none;stroke:black;"/>
   <text width="80" height="20" x="113" y="452" style="fill:black;" font-family="Arial" font-size="16px">sign</text>
   <rect width="80" height="20" x="108" y="458" style="fill:none;stroke:black;"/>
   <text width="80" height="20" x="113" y="472" style="fill:black;" font-family="Arial" font-size="16px">aadhar</text>
   <rect width="80" height="20" x="108" y="478" style="fill:none;stroke:black;"/>
   <text width="80" height="20" x="113" y="492" style="fill:black;" font-family="Arial" font-size="16px">migration</text>
   <rect width="80" height="20" x="108" y="498" style="fill:none;stroke:black;"/>
   <text width="80" height="20" x="113" y="512" style="fill:black;" font-family="Arial" font-size="16px">photo</text>
   <rect width="80" height="20" x="108" y="518" style="fill:none;stroke:black;"/>
   <text width="80" height="20" x="113" y="532" style="fill:black;" font-family="Arial" font-size="16px">caste</text>
</svg>
